<mxfile host="www.draw.io" modified="2020-01-29T17:16:42.512Z" agent="Mozilla/5.0 (Windows NT 10.0; Win64; x64) AppleWebKit/537.36 (KHTML, like Gecko) Chrome/79.0.3945.130 Safari/537.36" etag="cJ3o-j_aAN8lUehUJHtE" version="12.6.1" type="github">
  <diagram id="C5RBs43oDa-KdzZeNtuy" name="Page-1">
    <mxGraphModel dx="1203" dy="570" grid="1" gridSize="10" guides="1" tooltips="1" connect="1" arrows="1" fold="1" page="1" pageScale="1" pageWidth="827" pageHeight="1169" math="0" shadow="0">
      <root>
        <mxCell id="WIyWlLk6GJQsqaUBKTNV-0"/>
        <mxCell id="WIyWlLk6GJQsqaUBKTNV-1" parent="WIyWlLk6GJQsqaUBKTNV-0"/>
        <mxCell id="086JL-ol3SYnn0FMlAcH-0" value="User" style="swimlane;fontStyle=0;childLayout=stackLayout;horizontal=1;startSize=27;fillColor=#e0e0e0;horizontalStack=0;resizeParent=1;resizeParentMax=0;resizeLast=0;collapsible=1;marginBottom=0;swimlaneFillColor=#ffffff;align=center;fontSize=14;" parent="WIyWlLk6GJQsqaUBKTNV-1" vertex="1">
          <mxGeometry x="410" y="41.5" width="160" height="101" as="geometry"/>
        </mxCell>
        <mxCell id="086JL-ol3SYnn0FMlAcH-1" value="Name , Email, DOB" style="text;strokeColor=none;fillColor=none;spacingLeft=4;spacingRight=4;overflow=hidden;rotatable=0;points=[[0,0.5],[1,0.5]];portConstraint=eastwest;fontSize=12;" parent="086JL-ol3SYnn0FMlAcH-0" vertex="1">
          <mxGeometry y="27" width="160" height="26" as="geometry"/>
        </mxCell>
        <mxCell id="086JL-ol3SYnn0FMlAcH-2" value="Password" style="text;strokeColor=none;fillColor=none;spacingLeft=4;spacingRight=4;overflow=hidden;rotatable=0;points=[[0,0.5],[1,0.5]];portConstraint=eastwest;fontSize=12;" parent="086JL-ol3SYnn0FMlAcH-0" vertex="1">
          <mxGeometry y="53" width="160" height="26" as="geometry"/>
        </mxCell>
        <mxCell id="086JL-ol3SYnn0FMlAcH-3" value="Id&#xa;" style="text;strokeColor=none;fillColor=none;spacingLeft=4;spacingRight=4;overflow=hidden;rotatable=0;points=[[0,0.5],[1,0.5]];portConstraint=eastwest;fontSize=12;" parent="086JL-ol3SYnn0FMlAcH-0" vertex="1">
          <mxGeometry y="79" width="160" height="22" as="geometry"/>
        </mxCell>
        <mxCell id="086JL-ol3SYnn0FMlAcH-23" value="Cart" style="swimlane;fontStyle=0;childLayout=stackLayout;horizontal=1;startSize=26;fillColor=#e0e0e0;horizontalStack=0;resizeParent=1;resizeParentMax=0;resizeLast=0;collapsible=1;marginBottom=0;swimlaneFillColor=#ffffff;align=center;fontSize=14;" parent="WIyWlLk6GJQsqaUBKTNV-1" vertex="1">
          <mxGeometry x="400" y="220" width="160" height="104" as="geometry"/>
        </mxCell>
        <mxCell id="086JL-ol3SYnn0FMlAcH-24" value="User ID" style="text;strokeColor=none;fillColor=none;spacingLeft=4;spacingRight=4;overflow=hidden;rotatable=0;points=[[0,0.5],[1,0.5]];portConstraint=eastwest;fontSize=12;" parent="086JL-ol3SYnn0FMlAcH-23" vertex="1">
          <mxGeometry y="26" width="160" height="26" as="geometry"/>
        </mxCell>
        <mxCell id="086JL-ol3SYnn0FMlAcH-25" value="P1, P2, P3, P4" style="text;strokeColor=none;fillColor=none;spacingLeft=4;spacingRight=4;overflow=hidden;rotatable=0;points=[[0,0.5],[1,0.5]];portConstraint=eastwest;fontSize=12;" parent="086JL-ol3SYnn0FMlAcH-23" vertex="1">
          <mxGeometry y="52" width="160" height="26" as="geometry"/>
        </mxCell>
        <mxCell id="086JL-ol3SYnn0FMlAcH-26" value="F1, F2,F3, F4" style="text;strokeColor=none;fillColor=none;spacingLeft=4;spacingRight=4;overflow=hidden;rotatable=0;points=[[0,0.5],[1,0.5]];portConstraint=eastwest;fontSize=12;" parent="086JL-ol3SYnn0FMlAcH-23" vertex="1">
          <mxGeometry y="78" width="160" height="26" as="geometry"/>
        </mxCell>
        <mxCell id="086JL-ol3SYnn0FMlAcH-27" value="iteam" style="swimlane;fontStyle=0;childLayout=stackLayout;horizontal=1;startSize=26;fillColor=#e0e0e0;horizontalStack=0;resizeParent=1;resizeParentMax=0;resizeLast=0;collapsible=1;marginBottom=0;swimlaneFillColor=#ffffff;align=center;fontSize=14;" parent="WIyWlLk6GJQsqaUBKTNV-1" vertex="1">
          <mxGeometry x="130" y="230" width="210" height="104" as="geometry"/>
        </mxCell>
        <mxCell id="086JL-ol3SYnn0FMlAcH-28" value="cost, Shop details" style="text;strokeColor=none;fillColor=none;spacingLeft=4;spacingRight=4;overflow=hidden;rotatable=0;points=[[0,0.5],[1,0.5]];portConstraint=eastwest;fontSize=12;" parent="086JL-ol3SYnn0FMlAcH-27" vertex="1">
          <mxGeometry y="26" width="210" height="26" as="geometry"/>
        </mxCell>
        <mxCell id="086JL-ol3SYnn0FMlAcH-29" value="name, quantity available" style="text;strokeColor=none;fillColor=none;spacingLeft=4;spacingRight=4;overflow=hidden;rotatable=0;points=[[0,0.5],[1,0.5]];portConstraint=eastwest;fontSize=12;" parent="086JL-ol3SYnn0FMlAcH-27" vertex="1">
          <mxGeometry y="52" width="210" height="26" as="geometry"/>
        </mxCell>
        <mxCell id="086JL-ol3SYnn0FMlAcH-30" value="Iteam id = shopid + Threshold" style="text;strokeColor=none;fillColor=none;spacingLeft=4;spacingRight=4;overflow=hidden;rotatable=0;points=[[0,0.5],[1,0.5]];portConstraint=eastwest;fontSize=12;" parent="086JL-ol3SYnn0FMlAcH-27" vertex="1">
          <mxGeometry y="78" width="210" height="26" as="geometry"/>
        </mxCell>
        <mxCell id="Nz-Wfnqx9wUN5PTr4EcY-0" value="" style="endArrow=classic;html=1;entryX=0.5;entryY=0;entryDx=0;entryDy=0;exitX=0.456;exitY=1.056;exitDx=0;exitDy=0;exitPerimeter=0;" parent="WIyWlLk6GJQsqaUBKTNV-1" source="086JL-ol3SYnn0FMlAcH-3" target="086JL-ol3SYnn0FMlAcH-23" edge="1">
          <mxGeometry width="50" height="50" relative="1" as="geometry">
            <mxPoint x="100" y="190" as="sourcePoint"/>
            <mxPoint x="70" y="420" as="targetPoint"/>
          </mxGeometry>
        </mxCell>
        <mxCell id="086JL-ol3SYnn0FMlAcH-19" value="Shop" style="swimlane;fontStyle=0;childLayout=stackLayout;horizontal=1;startSize=26;fillColor=#e0e0e0;horizontalStack=0;resizeParent=1;resizeParentMax=0;resizeLast=0;collapsible=1;marginBottom=0;swimlaneFillColor=#ffffff;align=center;fontSize=14;" parent="WIyWlLk6GJQsqaUBKTNV-1" vertex="1">
          <mxGeometry x="140" y="41.5" width="210" height="104" as="geometry"/>
        </mxCell>
        <mxCell id="086JL-ol3SYnn0FMlAcH-20" value="Name, Shop Id" style="text;strokeColor=none;fillColor=none;spacingLeft=4;spacingRight=4;overflow=hidden;rotatable=0;points=[[0,0.5],[1,0.5]];portConstraint=eastwest;fontSize=12;" parent="086JL-ol3SYnn0FMlAcH-19" vertex="1">
          <mxGeometry y="26" width="210" height="26" as="geometry"/>
        </mxCell>
        <mxCell id="086JL-ol3SYnn0FMlAcH-21" value="Threshold" style="text;strokeColor=none;fillColor=none;spacingLeft=4;spacingRight=4;overflow=hidden;rotatable=0;points=[[0,0.5],[1,0.5]];portConstraint=eastwest;fontSize=12;" parent="086JL-ol3SYnn0FMlAcH-19" vertex="1">
          <mxGeometry y="52" width="210" height="26" as="geometry"/>
        </mxCell>
        <mxCell id="086JL-ol3SYnn0FMlAcH-22" value="Email, Password" style="text;strokeColor=none;fillColor=none;spacingLeft=4;spacingRight=4;overflow=hidden;rotatable=0;points=[[0,0.5],[1,0.5]];portConstraint=eastwest;fontSize=12;" parent="086JL-ol3SYnn0FMlAcH-19" vertex="1">
          <mxGeometry y="78" width="210" height="26" as="geometry"/>
        </mxCell>
        <mxCell id="Nz-Wfnqx9wUN5PTr4EcY-1" value="" style="endArrow=classic;html=1;entryX=0.5;entryY=0;entryDx=0;entryDy=0;exitX=0.433;exitY=1.048;exitDx=0;exitDy=0;exitPerimeter=0;" parent="WIyWlLk6GJQsqaUBKTNV-1" source="086JL-ol3SYnn0FMlAcH-22" target="086JL-ol3SYnn0FMlAcH-27" edge="1">
          <mxGeometry width="50" height="50" relative="1" as="geometry">
            <mxPoint x="20" y="470" as="sourcePoint"/>
            <mxPoint x="70" y="420" as="targetPoint"/>
          </mxGeometry>
        </mxCell>
        <mxCell id="Nz-Wfnqx9wUN5PTr4EcY-2" value="" style="endArrow=classic;html=1;exitX=0;exitY=0.5;exitDx=0;exitDy=0;entryX=1.015;entryY=0.174;entryDx=0;entryDy=0;entryPerimeter=0;" parent="WIyWlLk6GJQsqaUBKTNV-1" source="086JL-ol3SYnn0FMlAcH-25" target="086JL-ol3SYnn0FMlAcH-29" edge="1">
          <mxGeometry width="50" height="50" relative="1" as="geometry">
            <mxPoint x="70" y="470" as="sourcePoint"/>
            <mxPoint x="290" y="345" as="targetPoint"/>
          </mxGeometry>
        </mxCell>
        <mxCell id="Nz-Wfnqx9wUN5PTr4EcY-4" value="" style="endArrow=classic;html=1;exitX=-0.006;exitY=0.124;exitDx=0;exitDy=0;exitPerimeter=0;entryX=1;entryY=0;entryDx=0;entryDy=0;" parent="WIyWlLk6GJQsqaUBKTNV-1" source="086JL-ol3SYnn0FMlAcH-2" target="086JL-ol3SYnn0FMlAcH-27" edge="1">
          <mxGeometry width="50" height="50" relative="1" as="geometry">
            <mxPoint x="70" y="470" as="sourcePoint"/>
            <mxPoint x="120" y="420" as="targetPoint"/>
          </mxGeometry>
        </mxCell>
      </root>
    </mxGraphModel>
  </diagram>
</mxfile>
